<svg aria-roledescription="er" role="graphics-document document" viewBox="0 0 807.3655395507812 876" style="max-width: 807.3655395507812px;" xmlns="http://www.w3.org/2000/svg" width="100%" id="mermaid-svg-913676"><style>#mermaid-svg-913676{font-family:"trebuchet ms",verdana,arial,sans-serif;font-size:16px;fill:#333;}#mermaid-svg-913676 .error-icon{fill:#552222;}#mermaid-svg-913676 .error-text{fill:#552222;stroke:#552222;}#mermaid-svg-913676 .edge-thickness-normal{stroke-width:2px;}#mermaid-svg-913676 .edge-thickness-thick{stroke-width:3.5px;}#mermaid-svg-913676 .edge-pattern-solid{stroke-dasharray:0;}#mermaid-svg-913676 .edge-pattern-dashed{stroke-dasharray:3;}#mermaid-svg-913676 .edge-pattern-dotted{stroke-dasharray:2;}#mermaid-svg-913676 .marker{fill:#333333;stroke:#333333;}#mermaid-svg-913676 .marker.cross{stroke:#333333;}#mermaid-svg-913676 svg{font-family:"trebuchet ms",verdana,arial,sans-serif;font-size:16px;}#mermaid-svg-913676 .entityBox{fill:#ECECFF;stroke:#9370DB;}#mermaid-svg-913676 .attributeBoxOdd{fill:#ffffff;stroke:#9370DB;}#mermaid-svg-913676 .attributeBoxEven{fill:#f2f2f2;stroke:#9370DB;}#mermaid-svg-913676 .relationshipLabelBox{fill:hsl(80, 100%, 96.2745098039%);opacity:0.7;background-color:hsl(80, 100%, 96.2745098039%);}#mermaid-svg-913676 .relationshipLabelBox rect{opacity:0.5;}#mermaid-svg-913676 .relationshipLine{stroke:#333333;}#mermaid-svg-913676 .entityTitleText{text-anchor:middle;font-size:18px;fill:#333;}#mermaid-svg-913676 #MD_PARENT_START{fill:#f5f5f5!important;stroke:#333333!important;stroke-width:1;}#mermaid-svg-913676 #MD_PARENT_END{fill:#f5f5f5!important;stroke:#333333!important;stroke-width:1;}#mermaid-svg-913676 :root{--mermaid-font-family:"trebuchet ms",verdana,arial,sans-serif;}</style><g></g><defs><marker orient="auto" markerHeight="240" markerWidth="190" refY="7" refX="0" id="MD_PARENT_START"><path d="M 18,7 L9,13 L1,7 L9,1 Z"></path></marker></defs><defs><marker orient="auto" markerHeight="28" markerWidth="20" refY="7" refX="19" id="MD_PARENT_END"><path d="M 18,7 L9,13 L1,7 L9,1 Z"></path></marker></defs><defs><marker orient="auto" markerHeight="18" markerWidth="18" refY="9" refX="0" id="ONLY_ONE_START"><path d="M9,0 L9,18 M15,0 L15,18" fill="none" stroke="gray"></path></marker></defs><defs><marker orient="auto" markerHeight="18" markerWidth="18" refY="9" refX="18" id="ONLY_ONE_END"><path d="M3,0 L3,18 M9,0 L9,18" fill="none" stroke="gray"></path></marker></defs><defs><marker orient="auto" markerHeight="18" markerWidth="30" refY="9" refX="0" id="ZERO_OR_ONE_START"><circle r="6" cy="9" cx="21" fill="white" stroke="gray"></circle><path d="M9,0 L9,18" fill="none" stroke="gray"></path></marker></defs><defs><marker orient="auto" markerHeight="18" markerWidth="30" refY="9" refX="30" id="ZERO_OR_ONE_END"><circle r="6" cy="9" cx="9" fill="white" stroke="gray"></circle><path d="M21,0 L21,18" fill="none" stroke="gray"></path></marker></defs><defs><marker orient="auto" markerHeight="36" markerWidth="45" refY="18" refX="18" id="ONE_OR_MORE_START"><path d="M0,18 Q 18,0 36,18 Q 18,36 0,18 M42,9 L42,27" fill="none" stroke="gray"></path></marker></defs><defs><marker orient="auto" markerHeight="36" markerWidth="45" refY="18" refX="27" id="ONE_OR_MORE_END"><path d="M3,9 L3,27 M9,18 Q27,0 45,18 Q27,36 9,18" fill="none" stroke="gray"></path></marker></defs><defs><marker orient="auto" markerHeight="36" markerWidth="57" refY="18" refX="18" id="ZERO_OR_MORE_START"><circle r="6" cy="18" cx="48" fill="white" stroke="gray"></circle><path d="M0,18 Q18,0 36,18 Q18,36 0,18" fill="none" stroke="gray"></path></marker></defs><defs><marker orient="auto" markerHeight="36" markerWidth="57" refY="18" refX="39" id="ZERO_OR_MORE_END"><circle r="6" cy="18" cx="9" fill="white" stroke="gray"></circle><path d="M21,18 Q39,0 57,18 Q39,36 21,18" fill="none" stroke="gray"></path></marker></defs><path style="stroke: gray; fill: none;" marker-start="url(#ONLY_ONE_START)" marker-end="url(#ZERO_OR_MORE_END)" d="M364.201,122.22L330.006,135.85C295.81,149.48,227.418,176.74,193.222,198.703C159.026,220.667,159.026,237.333,159.026,245.667L159.026,254" class="er relationshipLine"></path><path style="stroke: gray; fill: none;" marker-start="url(#ONLY_ONE_START)" marker-end="url(#ZERO_OR_MORE_END)" d="M159.026,388L159.026,396.333C159.026,404.667,159.026,421.333,159.026,438C159.026,454.667,159.026,471.333,159.026,479.667L159.026,488" class="er relationshipLine"></path><path style="stroke: gray; fill: none;" marker-start="url(#ONLY_ONE_START)" marker-end="url(#ZERO_OR_MORE_END)" d="M159.026,622L159.026,630.333C159.026,638.667,159.026,655.333,187.805,674.749C216.583,694.164,274.14,716.329,302.919,727.411L331.697,738.493" class="er relationshipLine"></path><path style="stroke: gray; fill: none;" marker-start="url(#ONLY_ONE_START)" marker-end="url(#ZERO_OR_MORE_END)" d="M540.928,119.913L578.553,133.928C616.179,147.942,691.429,175.971,729.055,209.486C766.68,243,766.68,282,766.68,321C766.68,360,766.68,399,766.68,438C766.68,477,766.68,516,766.68,555C766.68,594,766.68,633,737.901,663.582C709.123,694.164,651.566,716.329,622.788,727.411L594.009,738.493" class="er relationshipLine"></path><path style="stroke: gray; fill: none;" marker-start="url(#ONLY_ONE_START)" marker-end="url(#ZERO_OR_MORE_END)" d="M452.565,154L452.565,162.333C452.565,170.667,452.565,187.333,452.565,215.167C452.565,243,452.565,282,452.565,321C452.565,360,452.565,399,458.249,426.833C463.932,454.667,475.3,471.333,480.984,479.667L486.668,488" class="er relationshipLine"></path><path style="stroke: gray; fill: none;" marker-start="url(#ONLY_ONE_START)" marker-end="url(#ZERO_OR_MORE_END)" d="M272.763,351.21L327.223,365.675C381.683,380.14,490.603,409.07,540.28,431.868C589.957,454.667,580.39,471.333,575.607,479.667L570.824,488" class="er relationshipLine"></path><g transform="translate(364.2013740539551,20 )" id="entity-USERS-1e82e395-936c-57a7-8ba9-b08f03574b93"><rect height="134" width="176.72666931152344" y="0" x="0" class="er entityBox"></rect><text style="dominant-baseline: middle; text-anchor: middle; font-size: 12px;" transform="translate(88.36333465576172,12)" y="0" x="0" id="text-entity-USERS-1e82e395-936c-57a7-8ba9-b08f03574b93" class="er entityLabel">USERS</text><rect height="22" width="36.61909484863281" y="24" x="0" class="er attributeBoxOdd"></rect><text style="dominant-baseline: middle; font-size: 10.2px;" transform="translate(5,35)" y="0" x="0" id="text-entity-USERS-1e82e395-936c-57a7-8ba9-b08f03574b93-attr-1-type" class="er entityLabel">int</text><rect height="22" width="52.327484130859375" y="24" x="36.61909484863281" class="er attributeBoxOdd"></rect><text style="dominant-baseline: middle; font-size: 10.2px;" transform="translate(41.61909484863281,35)" y="0" x="0" id="text-entity-USERS-1e82e395-936c-57a7-8ba9-b08f03574b93-attr-1-name" class="er entityLabel">id</text><rect height="22" width="22.68768310546875" y="24" x="88.94657897949219" class="er attributeBoxOdd"></rect><text style="dominant-baseline: middle; font-size: 10.2px;" transform="translate(93.94657897949219,35)" y="0" x="0" id="text-entity-USERS-1e82e395-936c-57a7-8ba9-b08f03574b93-attr-1-key" class="er entityLabel">PK</text><rect height="22" width="65.0924072265625" y="24" x="111.63426208496094" class="er attributeBoxOdd"></rect><text style="dominant-baseline: middle; font-size: 10.2px;" transform="translate(116.63426208496094,35)" y="0" x="0" id="text-entity-USERS-1e82e395-936c-57a7-8ba9-b08f03574b93-attr-1-comment" class="er entityLabel">Primary Key</text><rect height="22" width="36.61909484863281" y="46" x="0" class="er attributeBoxEven"></rect><text style="dominant-baseline: middle; font-size: 10.2px;" transform="translate(5,57)" y="0" x="0" id="text-entity-USERS-1e82e395-936c-57a7-8ba9-b08f03574b93-attr-2-type" class="er entityLabel">string</text><rect height="22" width="52.327484130859375" y="46" x="36.61909484863281" class="er attributeBoxEven"></rect><text style="dominant-baseline: middle; font-size: 10.2px;" transform="translate(41.61909484863281,57)" y="0" x="0" id="text-entity-USERS-1e82e395-936c-57a7-8ba9-b08f03574b93-attr-2-name" class="er entityLabel">name</text><rect height="22" width="22.68768310546875" y="46" x="88.94657897949219" class="er attributeBoxEven"></rect><text style="dominant-baseline: middle; font-size: 10.2px;" transform="translate(93.94657897949219,57)" y="0" x="0" id="text-entity-USERS-1e82e395-936c-57a7-8ba9-b08f03574b93-attr-2-key" class="er entityLabel"></text><rect height="22" width="65.0924072265625" y="46" x="111.63426208496094" class="er attributeBoxEven"></rect><text style="dominant-baseline: middle; font-size: 10.2px;" transform="translate(116.63426208496094,57)" y="0" x="0" id="text-entity-USERS-1e82e395-936c-57a7-8ba9-b08f03574b93-attr-2-comment" class="er entityLabel"></text><rect height="22" width="36.61909484863281" y="68" x="0" class="er attributeBoxOdd"></rect><text style="dominant-baseline: middle; font-size: 10.2px;" transform="translate(5,79)" y="0" x="0" id="text-entity-USERS-1e82e395-936c-57a7-8ba9-b08f03574b93-attr-3-type" class="er entityLabel">string</text><rect height="22" width="52.327484130859375" y="68" x="36.61909484863281" class="er attributeBoxOdd"></rect><text style="dominant-baseline: middle; font-size: 10.2px;" transform="translate(41.61909484863281,79)" y="0" x="0" id="text-entity-USERS-1e82e395-936c-57a7-8ba9-b08f03574b93-attr-3-name" class="er entityLabel">email</text><rect height="22" width="22.68768310546875" y="68" x="88.94657897949219" class="er attributeBoxOdd"></rect><text style="dominant-baseline: middle; font-size: 10.2px;" transform="translate(93.94657897949219,79)" y="0" x="0" id="text-entity-USERS-1e82e395-936c-57a7-8ba9-b08f03574b93-attr-3-key" class="er entityLabel"></text><rect height="22" width="65.0924072265625" y="68" x="111.63426208496094" class="er attributeBoxOdd"></rect><text style="dominant-baseline: middle; font-size: 10.2px;" transform="translate(116.63426208496094,79)" y="0" x="0" id="text-entity-USERS-1e82e395-936c-57a7-8ba9-b08f03574b93-attr-3-comment" class="er entityLabel"></text><rect height="22" width="36.61909484863281" y="90" x="0" class="er attributeBoxEven"></rect><text style="dominant-baseline: middle; font-size: 10.2px;" transform="translate(5,101)" y="0" x="0" id="text-entity-USERS-1e82e395-936c-57a7-8ba9-b08f03574b93-attr-4-type" class="er entityLabel">string</text><rect height="22" width="52.327484130859375" y="90" x="36.61909484863281" class="er attributeBoxEven"></rect><text style="dominant-baseline: middle; font-size: 10.2px;" transform="translate(41.61909484863281,101)" y="0" x="0" id="text-entity-USERS-1e82e395-936c-57a7-8ba9-b08f03574b93-attr-4-name" class="er entityLabel">password</text><rect height="22" width="22.68768310546875" y="90" x="88.94657897949219" class="er attributeBoxEven"></rect><text style="dominant-baseline: middle; font-size: 10.2px;" transform="translate(93.94657897949219,101)" y="0" x="0" id="text-entity-USERS-1e82e395-936c-57a7-8ba9-b08f03574b93-attr-4-key" class="er entityLabel"></text><rect height="22" width="65.0924072265625" y="90" x="111.63426208496094" class="er attributeBoxEven"></rect><text style="dominant-baseline: middle; font-size: 10.2px;" transform="translate(116.63426208496094,101)" y="0" x="0" id="text-entity-USERS-1e82e395-936c-57a7-8ba9-b08f03574b93-attr-4-comment" class="er entityLabel"></text><rect height="22" width="36.61909484863281" y="112" x="0" class="er attributeBoxOdd"></rect><text style="dominant-baseline: middle; font-size: 10.2px;" transform="translate(5,123)" y="0" x="0" id="text-entity-USERS-1e82e395-936c-57a7-8ba9-b08f03574b93-attr-5-type" class="er entityLabel">string</text><rect height="22" width="52.327484130859375" y="112" x="36.61909484863281" class="er attributeBoxOdd"></rect><text style="dominant-baseline: middle; font-size: 10.2px;" transform="translate(41.61909484863281,123)" y="0" x="0" id="text-entity-USERS-1e82e395-936c-57a7-8ba9-b08f03574b93-attr-5-name" class="er entityLabel">role</text><rect height="22" width="22.68768310546875" y="112" x="88.94657897949219" class="er attributeBoxOdd"></rect><text style="dominant-baseline: middle; font-size: 10.2px;" transform="translate(93.94657897949219,123)" y="0" x="0" id="text-entity-USERS-1e82e395-936c-57a7-8ba9-b08f03574b93-attr-5-key" class="er entityLabel"></text><rect height="22" width="65.0924072265625" y="112" x="111.63426208496094" class="er attributeBoxOdd"></rect><text style="dominant-baseline: middle; font-size: 10.2px;" transform="translate(116.63426208496094,123)" y="0" x="0" id="text-entity-USERS-1e82e395-936c-57a7-8ba9-b08f03574b93-attr-5-comment" class="er entityLabel"></text></g><g transform="translate(45.289527893066406,254 )" id="entity-ASSESSMENTS-99c9acf5-e216-57e6-81ff-1794fada332d"><rect height="134" width="227.47361755371094" y="0" x="0" class="er entityBox"></rect><text style="dominant-baseline: middle; text-anchor: middle; font-size: 12px;" transform="translate(113.73680877685547,12)" y="0" x="0" id="text-entity-ASSESSMENTS-99c9acf5-e216-57e6-81ff-1794fada332d" class="er entityLabel">ASSESSMENTS</text><rect height="22" width="36.61909484863281" y="24" x="0" class="er attributeBoxOdd"></rect><text style="dominant-baseline: middle; font-size: 10.2px;" transform="translate(5,35)" y="0" x="0" id="text-entity-ASSESSMENTS-99c9acf5-e216-57e6-81ff-1794fada332d-attr-1-type" class="er entityLabel">int</text><rect height="22" width="61.40684509277344" y="24" x="36.61909484863281" class="er attributeBoxOdd"></rect><text style="dominant-baseline: middle; font-size: 10.2px;" transform="translate(41.61909484863281,35)" y="0" x="0" id="text-entity-ASSESSMENTS-99c9acf5-e216-57e6-81ff-1794fada332d-attr-1-name" class="er entityLabel">id</text><rect height="22" width="22.68768310546875" y="24" x="98.02593994140625" class="er attributeBoxOdd"></rect><text style="dominant-baseline: middle; font-size: 10.2px;" transform="translate(103.02593994140625,35)" y="0" x="0" id="text-entity-ASSESSMENTS-99c9acf5-e216-57e6-81ff-1794fada332d-attr-1-key" class="er entityLabel">PK</text><rect height="22" width="106.75999450683594" y="24" x="120.713623046875" class="er attributeBoxOdd"></rect><text style="dominant-baseline: middle; font-size: 10.2px;" transform="translate(125.713623046875,35)" y="0" x="0" id="text-entity-ASSESSMENTS-99c9acf5-e216-57e6-81ff-1794fada332d-attr-1-comment" class="er entityLabel">Primary Key</text><rect height="22" width="36.61909484863281" y="46" x="0" class="er attributeBoxEven"></rect><text style="dominant-baseline: middle; font-size: 10.2px;" transform="translate(5,57)" y="0" x="0" id="text-entity-ASSESSMENTS-99c9acf5-e216-57e6-81ff-1794fada332d-attr-2-type" class="er entityLabel">string</text><rect height="22" width="61.40684509277344" y="46" x="36.61909484863281" class="er attributeBoxEven"></rect><text style="dominant-baseline: middle; font-size: 10.2px;" transform="translate(41.61909484863281,57)" y="0" x="0" id="text-entity-ASSESSMENTS-99c9acf5-e216-57e6-81ff-1794fada332d-attr-2-name" class="er entityLabel">title</text><rect height="22" width="22.68768310546875" y="46" x="98.02593994140625" class="er attributeBoxEven"></rect><text style="dominant-baseline: middle; font-size: 10.2px;" transform="translate(103.02593994140625,57)" y="0" x="0" id="text-entity-ASSESSMENTS-99c9acf5-e216-57e6-81ff-1794fada332d-attr-2-key" class="er entityLabel"></text><rect height="22" width="106.75999450683594" y="46" x="120.713623046875" class="er attributeBoxEven"></rect><text style="dominant-baseline: middle; font-size: 10.2px;" transform="translate(125.713623046875,57)" y="0" x="0" id="text-entity-ASSESSMENTS-99c9acf5-e216-57e6-81ff-1794fada332d-attr-2-comment" class="er entityLabel"></text><rect height="22" width="36.61909484863281" y="68" x="0" class="er attributeBoxOdd"></rect><text style="dominant-baseline: middle; font-size: 10.2px;" transform="translate(5,79)" y="0" x="0" id="text-entity-ASSESSMENTS-99c9acf5-e216-57e6-81ff-1794fada332d-attr-3-type" class="er entityLabel">string</text><rect height="22" width="61.40684509277344" y="68" x="36.61909484863281" class="er attributeBoxOdd"></rect><text style="dominant-baseline: middle; font-size: 10.2px;" transform="translate(41.61909484863281,79)" y="0" x="0" id="text-entity-ASSESSMENTS-99c9acf5-e216-57e6-81ff-1794fada332d-attr-3-name" class="er entityLabel">description</text><rect height="22" width="22.68768310546875" y="68" x="98.02593994140625" class="er attributeBoxOdd"></rect><text style="dominant-baseline: middle; font-size: 10.2px;" transform="translate(103.02593994140625,79)" y="0" x="0" id="text-entity-ASSESSMENTS-99c9acf5-e216-57e6-81ff-1794fada332d-attr-3-key" class="er entityLabel"></text><rect height="22" width="106.75999450683594" y="68" x="120.713623046875" class="er attributeBoxOdd"></rect><text style="dominant-baseline: middle; font-size: 10.2px;" transform="translate(125.713623046875,79)" y="0" x="0" id="text-entity-ASSESSMENTS-99c9acf5-e216-57e6-81ff-1794fada332d-attr-3-comment" class="er entityLabel"></text><rect height="22" width="36.61909484863281" y="90" x="0" class="er attributeBoxEven"></rect><text style="dominant-baseline: middle; font-size: 10.2px;" transform="translate(5,101)" y="0" x="0" id="text-entity-ASSESSMENTS-99c9acf5-e216-57e6-81ff-1794fada332d-attr-4-type" class="er entityLabel">int</text><rect height="22" width="61.40684509277344" y="90" x="36.61909484863281" class="er attributeBoxEven"></rect><text style="dominant-baseline: middle; font-size: 10.2px;" transform="translate(41.61909484863281,101)" y="0" x="0" id="text-entity-ASSESSMENTS-99c9acf5-e216-57e6-81ff-1794fada332d-attr-4-name" class="er entityLabel">creator_id</text><rect height="22" width="22.68768310546875" y="90" x="98.02593994140625" class="er attributeBoxEven"></rect><text style="dominant-baseline: middle; font-size: 10.2px;" transform="translate(103.02593994140625,101)" y="0" x="0" id="text-entity-ASSESSMENTS-99c9acf5-e216-57e6-81ff-1794fada332d-attr-4-key" class="er entityLabel">FK</text><rect height="22" width="106.75999450683594" y="90" x="120.713623046875" class="er attributeBoxEven"></rect><text style="dominant-baseline: middle; font-size: 10.2px;" transform="translate(125.713623046875,101)" y="0" x="0" id="text-entity-ASSESSMENTS-99c9acf5-e216-57e6-81ff-1794fada332d-attr-4-comment" class="er entityLabel">Foreign Key to USERS</text><rect height="22" width="36.61909484863281" y="112" x="0" class="er attributeBoxOdd"></rect><text style="dominant-baseline: middle; font-size: 10.2px;" transform="translate(5,123)" y="0" x="0" id="text-entity-ASSESSMENTS-99c9acf5-e216-57e6-81ff-1794fada332d-attr-5-type" class="er entityLabel">date</text><rect height="22" width="61.40684509277344" y="112" x="36.61909484863281" class="er attributeBoxOdd"></rect><text style="dominant-baseline: middle; font-size: 10.2px;" transform="translate(41.61909484863281,123)" y="0" x="0" id="text-entity-ASSESSMENTS-99c9acf5-e216-57e6-81ff-1794fada332d-attr-5-name" class="er entityLabel">created_at</text><rect height="22" width="22.68768310546875" y="112" x="98.02593994140625" class="er attributeBoxOdd"></rect><text style="dominant-baseline: middle; font-size: 10.2px;" transform="translate(103.02593994140625,123)" y="0" x="0" id="text-entity-ASSESSMENTS-99c9acf5-e216-57e6-81ff-1794fada332d-attr-5-key" class="er entityLabel"></text><rect height="22" width="106.75999450683594" y="112" x="120.713623046875" class="er attributeBoxOdd"></rect><text style="dominant-baseline: middle; font-size: 10.2px;" transform="translate(125.713623046875,123)" y="0" x="0" id="text-entity-ASSESSMENTS-99c9acf5-e216-57e6-81ff-1794fada332d-attr-5-comment" class="er entityLabel"></text></g><g transform="translate(20,488 )" id="entity-QUESTIONS-dbd008d6-4321-5922-aa4f-db38b7a601da"><rect height="134" width="278.0526885986328" y="0" x="0" class="er entityBox"></rect><text style="dominant-baseline: middle; text-anchor: middle; font-size: 12px;" transform="translate(139.0263442993164,12)" y="0" x="0" id="text-entity-QUESTIONS-dbd008d6-4321-5922-aa4f-db38b7a601da" class="er entityLabel">QUESTIONS</text><rect height="22" width="36.61909484863281" y="24" x="0" class="er attributeBoxOdd"></rect><text style="dominant-baseline: middle; font-size: 10.2px;" transform="translate(5,35)" y="0" x="0" id="text-entity-QUESTIONS-dbd008d6-4321-5922-aa4f-db38b7a601da-attr-1-type" class="er entityLabel">int</text><rect height="22" width="79.234375" y="24" x="36.61909484863281" class="er attributeBoxOdd"></rect><text style="dominant-baseline: middle; font-size: 10.2px;" transform="translate(41.61909484863281,35)" y="0" x="0" id="text-entity-QUESTIONS-dbd008d6-4321-5922-aa4f-db38b7a601da-attr-1-name" class="er entityLabel">id</text><rect height="22" width="22.68768310546875" y="24" x="115.85346984863281" class="er attributeBoxOdd"></rect><text style="dominant-baseline: middle; font-size: 10.2px;" transform="translate(120.85346984863281,35)" y="0" x="0" id="text-entity-QUESTIONS-dbd008d6-4321-5922-aa4f-db38b7a601da-attr-1-key" class="er entityLabel">PK</text><rect height="22" width="139.51153564453125" y="24" x="138.54115295410156" class="er attributeBoxOdd"></rect><text style="dominant-baseline: middle; font-size: 10.2px;" transform="translate(143.54115295410156,35)" y="0" x="0" id="text-entity-QUESTIONS-dbd008d6-4321-5922-aa4f-db38b7a601da-attr-1-comment" class="er entityLabel">Primary Key</text><rect height="22" width="36.61909484863281" y="46" x="0" class="er attributeBoxEven"></rect><text style="dominant-baseline: middle; font-size: 10.2px;" transform="translate(5,57)" y="0" x="0" id="text-entity-QUESTIONS-dbd008d6-4321-5922-aa4f-db38b7a601da-attr-2-type" class="er entityLabel">string</text><rect height="22" width="79.234375" y="46" x="36.61909484863281" class="er attributeBoxEven"></rect><text style="dominant-baseline: middle; font-size: 10.2px;" transform="translate(41.61909484863281,57)" y="0" x="0" id="text-entity-QUESTIONS-dbd008d6-4321-5922-aa4f-db38b7a601da-attr-2-name" class="er entityLabel">content</text><rect height="22" width="22.68768310546875" y="46" x="115.85346984863281" class="er attributeBoxEven"></rect><text style="dominant-baseline: middle; font-size: 10.2px;" transform="translate(120.85346984863281,57)" y="0" x="0" id="text-entity-QUESTIONS-dbd008d6-4321-5922-aa4f-db38b7a601da-attr-2-key" class="er entityLabel"></text><rect height="22" width="139.51153564453125" y="46" x="138.54115295410156" class="er attributeBoxEven"></rect><text style="dominant-baseline: middle; font-size: 10.2px;" transform="translate(143.54115295410156,57)" y="0" x="0" id="text-entity-QUESTIONS-dbd008d6-4321-5922-aa4f-db38b7a601da-attr-2-comment" class="er entityLabel"></text><rect height="22" width="36.61909484863281" y="68" x="0" class="er attributeBoxOdd"></rect><text style="dominant-baseline: middle; font-size: 10.2px;" transform="translate(5,79)" y="0" x="0" id="text-entity-QUESTIONS-dbd008d6-4321-5922-aa4f-db38b7a601da-attr-3-type" class="er entityLabel">int</text><rect height="22" width="79.234375" y="68" x="36.61909484863281" class="er attributeBoxOdd"></rect><text style="dominant-baseline: middle; font-size: 10.2px;" transform="translate(41.61909484863281,79)" y="0" x="0" id="text-entity-QUESTIONS-dbd008d6-4321-5922-aa4f-db38b7a601da-attr-3-name" class="er entityLabel">assessment_id</text><rect height="22" width="22.68768310546875" y="68" x="115.85346984863281" class="er attributeBoxOdd"></rect><text style="dominant-baseline: middle; font-size: 10.2px;" transform="translate(120.85346984863281,79)" y="0" x="0" id="text-entity-QUESTIONS-dbd008d6-4321-5922-aa4f-db38b7a601da-attr-3-key" class="er entityLabel">FK</text><rect height="22" width="139.51153564453125" y="68" x="138.54115295410156" class="er attributeBoxOdd"></rect><text style="dominant-baseline: middle; font-size: 10.2px;" transform="translate(143.54115295410156,79)" y="0" x="0" id="text-entity-QUESTIONS-dbd008d6-4321-5922-aa4f-db38b7a601da-attr-3-comment" class="er entityLabel">Foreign Key to ASSESSMENTS</text><rect height="22" width="36.61909484863281" y="90" x="0" class="er attributeBoxEven"></rect><text style="dominant-baseline: middle; font-size: 10.2px;" transform="translate(5,101)" y="0" x="0" id="text-entity-QUESTIONS-dbd008d6-4321-5922-aa4f-db38b7a601da-attr-4-type" class="er entityLabel">string</text><rect height="22" width="79.234375" y="90" x="36.61909484863281" class="er attributeBoxEven"></rect><text style="dominant-baseline: middle; font-size: 10.2px;" transform="translate(41.61909484863281,101)" y="0" x="0" id="text-entity-QUESTIONS-dbd008d6-4321-5922-aa4f-db38b7a601da-attr-4-name" class="er entityLabel">question_type</text><rect height="22" width="22.68768310546875" y="90" x="115.85346984863281" class="er attributeBoxEven"></rect><text style="dominant-baseline: middle; font-size: 10.2px;" transform="translate(120.85346984863281,101)" y="0" x="0" id="text-entity-QUESTIONS-dbd008d6-4321-5922-aa4f-db38b7a601da-attr-4-key" class="er entityLabel"></text><rect height="22" width="139.51153564453125" y="90" x="138.54115295410156" class="er attributeBoxEven"></rect><text style="dominant-baseline: middle; font-size: 10.2px;" transform="translate(143.54115295410156,101)" y="0" x="0" id="text-entity-QUESTIONS-dbd008d6-4321-5922-aa4f-db38b7a601da-attr-4-comment" class="er entityLabel"></text><rect height="22" width="36.61909484863281" y="112" x="0" class="er attributeBoxOdd"></rect><text style="dominant-baseline: middle; font-size: 10.2px;" transform="translate(5,123)" y="0" x="0" id="text-entity-QUESTIONS-dbd008d6-4321-5922-aa4f-db38b7a601da-attr-5-type" class="er entityLabel">int</text><rect height="22" width="79.234375" y="112" x="36.61909484863281" class="er attributeBoxOdd"></rect><text style="dominant-baseline: middle; font-size: 10.2px;" transform="translate(41.61909484863281,123)" y="0" x="0" id="text-entity-QUESTIONS-dbd008d6-4321-5922-aa4f-db38b7a601da-attr-5-name" class="er entityLabel">difficulty_level</text><rect height="22" width="22.68768310546875" y="112" x="115.85346984863281" class="er attributeBoxOdd"></rect><text style="dominant-baseline: middle; font-size: 10.2px;" transform="translate(120.85346984863281,123)" y="0" x="0" id="text-entity-QUESTIONS-dbd008d6-4321-5922-aa4f-db38b7a601da-attr-5-key" class="er entityLabel"></text><rect height="22" width="139.51153564453125" y="112" x="138.54115295410156" class="er attributeBoxOdd"></rect><text style="dominant-baseline: middle; font-size: 10.2px;" transform="translate(143.54115295410156,123)" y="0" x="0" id="text-entity-QUESTIONS-dbd008d6-4321-5922-aa4f-db38b7a601da-attr-5-comment" class="er entityLabel"></text></g><g transform="translate(331.69712829589844,722 )" id="entity-ANSWERS-bcea83a6-343f-5741-91fa-1ec2a34d25ab"><rect height="134" width="262.3119659423828" y="0" x="0" class="er entityBox"></rect><text style="dominant-baseline: middle; text-anchor: middle; font-size: 12px;" transform="translate(131.1559829711914,12)" y="0" x="0" id="text-entity-ANSWERS-bcea83a6-343f-5741-91fa-1ec2a34d25ab" class="er entityLabel">ANSWERS</text><rect height="22" width="46.56010437011719" y="24" x="0" class="er attributeBoxOdd"></rect><text style="dominant-baseline: middle; font-size: 10.2px;" transform="translate(5,35)" y="0" x="0" id="text-entity-ANSWERS-bcea83a6-343f-5741-91fa-1ec2a34d25ab-attr-1-type" class="er entityLabel">int</text><rect height="22" width="63.20478820800781" y="24" x="46.56010437011719" class="er attributeBoxOdd"></rect><text style="dominant-baseline: middle; font-size: 10.2px;" transform="translate(51.56010437011719,35)" y="0" x="0" id="text-entity-ANSWERS-bcea83a6-343f-5741-91fa-1ec2a34d25ab-attr-1-name" class="er entityLabel">id</text><rect height="22" width="22.68768310546875" y="24" x="109.764892578125" class="er attributeBoxOdd"></rect><text style="dominant-baseline: middle; font-size: 10.2px;" transform="translate(114.764892578125,35)" y="0" x="0" id="text-entity-ANSWERS-bcea83a6-343f-5741-91fa-1ec2a34d25ab-attr-1-key" class="er entityLabel">PK</text><rect height="22" width="129.85939025878906" y="24" x="132.45257568359375" class="er attributeBoxOdd"></rect><text style="dominant-baseline: middle; font-size: 10.2px;" transform="translate(137.45257568359375,35)" y="0" x="0" id="text-entity-ANSWERS-bcea83a6-343f-5741-91fa-1ec2a34d25ab-attr-1-comment" class="er entityLabel">Primary Key</text><rect height="22" width="46.56010437011719" y="46" x="0" class="er attributeBoxEven"></rect><text style="dominant-baseline: middle; font-size: 10.2px;" transform="translate(5,57)" y="0" x="0" id="text-entity-ANSWERS-bcea83a6-343f-5741-91fa-1ec2a34d25ab-attr-2-type" class="er entityLabel">int</text><rect height="22" width="63.20478820800781" y="46" x="46.56010437011719" class="er attributeBoxEven"></rect><text style="dominant-baseline: middle; font-size: 10.2px;" transform="translate(51.56010437011719,57)" y="0" x="0" id="text-entity-ANSWERS-bcea83a6-343f-5741-91fa-1ec2a34d25ab-attr-2-name" class="er entityLabel">question_id</text><rect height="22" width="22.68768310546875" y="46" x="109.764892578125" class="er attributeBoxEven"></rect><text style="dominant-baseline: middle; font-size: 10.2px;" transform="translate(114.764892578125,57)" y="0" x="0" id="text-entity-ANSWERS-bcea83a6-343f-5741-91fa-1ec2a34d25ab-attr-2-key" class="er entityLabel">FK</text><rect height="22" width="129.85939025878906" y="46" x="132.45257568359375" class="er attributeBoxEven"></rect><text style="dominant-baseline: middle; font-size: 10.2px;" transform="translate(137.45257568359375,57)" y="0" x="0" id="text-entity-ANSWERS-bcea83a6-343f-5741-91fa-1ec2a34d25ab-attr-2-comment" class="er entityLabel">Foreign Key to QUESTIONS</text><rect height="22" width="46.56010437011719" y="68" x="0" class="er attributeBoxOdd"></rect><text style="dominant-baseline: middle; font-size: 10.2px;" transform="translate(5,79)" y="0" x="0" id="text-entity-ANSWERS-bcea83a6-343f-5741-91fa-1ec2a34d25ab-attr-3-type" class="er entityLabel">int</text><rect height="22" width="63.20478820800781" y="68" x="46.56010437011719" class="er attributeBoxOdd"></rect><text style="dominant-baseline: middle; font-size: 10.2px;" transform="translate(51.56010437011719,79)" y="0" x="0" id="text-entity-ANSWERS-bcea83a6-343f-5741-91fa-1ec2a34d25ab-attr-3-name" class="er entityLabel">user_id</text><rect height="22" width="22.68768310546875" y="68" x="109.764892578125" class="er attributeBoxOdd"></rect><text style="dominant-baseline: middle; font-size: 10.2px;" transform="translate(114.764892578125,79)" y="0" x="0" id="text-entity-ANSWERS-bcea83a6-343f-5741-91fa-1ec2a34d25ab-attr-3-key" class="er entityLabel">FK</text><rect height="22" width="129.85939025878906" y="68" x="132.45257568359375" class="er attributeBoxOdd"></rect><text style="dominant-baseline: middle; font-size: 10.2px;" transform="translate(137.45257568359375,79)" y="0" x="0" id="text-entity-ANSWERS-bcea83a6-343f-5741-91fa-1ec2a34d25ab-attr-3-comment" class="er entityLabel">Foreign Key to USERS</text><rect height="22" width="46.56010437011719" y="90" x="0" class="er attributeBoxEven"></rect><text style="dominant-baseline: middle; font-size: 10.2px;" transform="translate(5,101)" y="0" x="0" id="text-entity-ANSWERS-bcea83a6-343f-5741-91fa-1ec2a34d25ab-attr-4-type" class="er entityLabel">string</text><rect height="22" width="63.20478820800781" y="90" x="46.56010437011719" class="er attributeBoxEven"></rect><text style="dominant-baseline: middle; font-size: 10.2px;" transform="translate(51.56010437011719,101)" y="0" x="0" id="text-entity-ANSWERS-bcea83a6-343f-5741-91fa-1ec2a34d25ab-attr-4-name" class="er entityLabel">answer</text><rect height="22" width="22.68768310546875" y="90" x="109.764892578125" class="er attributeBoxEven"></rect><text style="dominant-baseline: middle; font-size: 10.2px;" transform="translate(114.764892578125,101)" y="0" x="0" id="text-entity-ANSWERS-bcea83a6-343f-5741-91fa-1ec2a34d25ab-attr-4-key" class="er entityLabel"></text><rect height="22" width="129.85939025878906" y="90" x="132.45257568359375" class="er attributeBoxEven"></rect><text style="dominant-baseline: middle; font-size: 10.2px;" transform="translate(137.45257568359375,101)" y="0" x="0" id="text-entity-ANSWERS-bcea83a6-343f-5741-91fa-1ec2a34d25ab-attr-4-comment" class="er entityLabel"></text><rect height="22" width="46.56010437011719" y="112" x="0" class="er attributeBoxOdd"></rect><text style="dominant-baseline: middle; font-size: 10.2px;" transform="translate(5,123)" y="0" x="0" id="text-entity-ANSWERS-bcea83a6-343f-5741-91fa-1ec2a34d25ab-attr-5-type" class="er entityLabel">boolean</text><rect height="22" width="63.20478820800781" y="112" x="46.56010437011719" class="er attributeBoxOdd"></rect><text style="dominant-baseline: middle; font-size: 10.2px;" transform="translate(51.56010437011719,123)" y="0" x="0" id="text-entity-ANSWERS-bcea83a6-343f-5741-91fa-1ec2a34d25ab-attr-5-name" class="er entityLabel">is_correct</text><rect height="22" width="22.68768310546875" y="112" x="109.764892578125" class="er attributeBoxOdd"></rect><text style="dominant-baseline: middle; font-size: 10.2px;" transform="translate(114.764892578125,123)" y="0" x="0" id="text-entity-ANSWERS-bcea83a6-343f-5741-91fa-1ec2a34d25ab-attr-5-key" class="er entityLabel"></text><rect height="22" width="129.85939025878906" y="112" x="132.45257568359375" class="er attributeBoxOdd"></rect><text style="dominant-baseline: middle; font-size: 10.2px;" transform="translate(137.45257568359375,123)" y="0" x="0" id="text-entity-ANSWERS-bcea83a6-343f-5741-91fa-1ec2a34d25ab-attr-5-comment" class="er entityLabel"></text></g><g transform="translate(398.05267333984375,488 )" id="entity-SUBMISSIONS-dfc51483-dd3e-572b-8e3b-983526051a16"><rect height="134" width="268.62721252441406" y="0" x="0" class="er entityBox"></rect><text style="dominant-baseline: middle; text-anchor: middle; font-size: 12px;" transform="translate(134.31360626220703,12)" y="0" x="0" id="text-entity-SUBMISSIONS-dfc51483-dd3e-572b-8e3b-983526051a16" class="er entityLabel">SUBMISSIONS</text><rect height="22" width="31.0858154296875" y="24" x="0" class="er attributeBoxOdd"></rect><text style="dominant-baseline: middle; font-size: 10.2px;" transform="translate(5,35)" y="0" x="0" id="text-entity-SUBMISSIONS-dfc51483-dd3e-572b-8e3b-983526051a16-attr-1-type" class="er entityLabel">int</text><rect height="22" width="75.34217834472656" y="24" x="31.0858154296875" class="er attributeBoxOdd"></rect><text style="dominant-baseline: middle; font-size: 10.2px;" transform="translate(36.0858154296875,35)" y="0" x="0" id="text-entity-SUBMISSIONS-dfc51483-dd3e-572b-8e3b-983526051a16-attr-1-name" class="er entityLabel">id</text><rect height="22" width="22.68768310546875" y="24" x="106.42799377441406" class="er attributeBoxOdd"></rect><text style="dominant-baseline: middle; font-size: 10.2px;" transform="translate(111.42799377441406,35)" y="0" x="0" id="text-entity-SUBMISSIONS-dfc51483-dd3e-572b-8e3b-983526051a16-attr-1-key" class="er entityLabel">PK</text><rect height="22" width="139.51153564453125" y="24" x="129.1156768798828" class="er attributeBoxOdd"></rect><text style="dominant-baseline: middle; font-size: 10.2px;" transform="translate(134.1156768798828,35)" y="0" x="0" id="text-entity-SUBMISSIONS-dfc51483-dd3e-572b-8e3b-983526051a16-attr-1-comment" class="er entityLabel">Primary Key</text><rect height="22" width="31.0858154296875" y="46" x="0" class="er attributeBoxEven"></rect><text style="dominant-baseline: middle; font-size: 10.2px;" transform="translate(5,57)" y="0" x="0" id="text-entity-SUBMISSIONS-dfc51483-dd3e-572b-8e3b-983526051a16-attr-2-type" class="er entityLabel">int</text><rect height="22" width="75.34217834472656" y="46" x="31.0858154296875" class="er attributeBoxEven"></rect><text style="dominant-baseline: middle; font-size: 10.2px;" transform="translate(36.0858154296875,57)" y="0" x="0" id="text-entity-SUBMISSIONS-dfc51483-dd3e-572b-8e3b-983526051a16-attr-2-name" class="er entityLabel">assessment_id</text><rect height="22" width="22.68768310546875" y="46" x="106.42799377441406" class="er attributeBoxEven"></rect><text style="dominant-baseline: middle; font-size: 10.2px;" transform="translate(111.42799377441406,57)" y="0" x="0" id="text-entity-SUBMISSIONS-dfc51483-dd3e-572b-8e3b-983526051a16-attr-2-key" class="er entityLabel">FK</text><rect height="22" width="139.51153564453125" y="46" x="129.1156768798828" class="er attributeBoxEven"></rect><text style="dominant-baseline: middle; font-size: 10.2px;" transform="translate(134.1156768798828,57)" y="0" x="0" id="text-entity-SUBMISSIONS-dfc51483-dd3e-572b-8e3b-983526051a16-attr-2-comment" class="er entityLabel">Foreign Key to ASSESSMENTS</text><rect height="22" width="31.0858154296875" y="68" x="0" class="er attributeBoxOdd"></rect><text style="dominant-baseline: middle; font-size: 10.2px;" transform="translate(5,79)" y="0" x="0" id="text-entity-SUBMISSIONS-dfc51483-dd3e-572b-8e3b-983526051a16-attr-3-type" class="er entityLabel">int</text><rect height="22" width="75.34217834472656" y="68" x="31.0858154296875" class="er attributeBoxOdd"></rect><text style="dominant-baseline: middle; font-size: 10.2px;" transform="translate(36.0858154296875,79)" y="0" x="0" id="text-entity-SUBMISSIONS-dfc51483-dd3e-572b-8e3b-983526051a16-attr-3-name" class="er entityLabel">user_id</text><rect height="22" width="22.68768310546875" y="68" x="106.42799377441406" class="er attributeBoxOdd"></rect><text style="dominant-baseline: middle; font-size: 10.2px;" transform="translate(111.42799377441406,79)" y="0" x="0" id="text-entity-SUBMISSIONS-dfc51483-dd3e-572b-8e3b-983526051a16-attr-3-key" class="er entityLabel">FK</text><rect height="22" width="139.51153564453125" y="68" x="129.1156768798828" class="er attributeBoxOdd"></rect><text style="dominant-baseline: middle; font-size: 10.2px;" transform="translate(134.1156768798828,79)" y="0" x="0" id="text-entity-SUBMISSIONS-dfc51483-dd3e-572b-8e3b-983526051a16-attr-3-comment" class="er entityLabel">Foreign Key to USERS</text><rect height="22" width="31.0858154296875" y="90" x="0" class="er attributeBoxEven"></rect><text style="dominant-baseline: middle; font-size: 10.2px;" transform="translate(5,101)" y="0" x="0" id="text-entity-SUBMISSIONS-dfc51483-dd3e-572b-8e3b-983526051a16-attr-4-type" class="er entityLabel">date</text><rect height="22" width="75.34217834472656" y="90" x="31.0858154296875" class="er attributeBoxEven"></rect><text style="dominant-baseline: middle; font-size: 10.2px;" transform="translate(36.0858154296875,101)" y="0" x="0" id="text-entity-SUBMISSIONS-dfc51483-dd3e-572b-8e3b-983526051a16-attr-4-name" class="er entityLabel">submitted_at</text><rect height="22" width="22.68768310546875" y="90" x="106.42799377441406" class="er attributeBoxEven"></rect><text style="dominant-baseline: middle; font-size: 10.2px;" transform="translate(111.42799377441406,101)" y="0" x="0" id="text-entity-SUBMISSIONS-dfc51483-dd3e-572b-8e3b-983526051a16-attr-4-key" class="er entityLabel"></text><rect height="22" width="139.51153564453125" y="90" x="129.1156768798828" class="er attributeBoxEven"></rect><text style="dominant-baseline: middle; font-size: 10.2px;" transform="translate(134.1156768798828,101)" y="0" x="0" id="text-entity-SUBMISSIONS-dfc51483-dd3e-572b-8e3b-983526051a16-attr-4-comment" class="er entityLabel"></text><rect height="22" width="31.0858154296875" y="112" x="0" class="er attributeBoxOdd"></rect><text style="dominant-baseline: middle; font-size: 10.2px;" transform="translate(5,123)" y="0" x="0" id="text-entity-SUBMISSIONS-dfc51483-dd3e-572b-8e3b-983526051a16-attr-5-type" class="er entityLabel">int</text><rect height="22" width="75.34217834472656" y="112" x="31.0858154296875" class="er attributeBoxOdd"></rect><text style="dominant-baseline: middle; font-size: 10.2px;" transform="translate(36.0858154296875,123)" y="0" x="0" id="text-entity-SUBMISSIONS-dfc51483-dd3e-572b-8e3b-983526051a16-attr-5-name" class="er entityLabel">score</text><rect height="22" width="22.68768310546875" y="112" x="106.42799377441406" class="er attributeBoxOdd"></rect><text style="dominant-baseline: middle; font-size: 10.2px;" transform="translate(111.42799377441406,123)" y="0" x="0" id="text-entity-SUBMISSIONS-dfc51483-dd3e-572b-8e3b-983526051a16-attr-5-key" class="er entityLabel"></text><rect height="22" width="139.51153564453125" y="112" x="129.1156768798828" class="er attributeBoxOdd"></rect><text style="dominant-baseline: middle; font-size: 10.2px;" transform="translate(134.1156768798828,123)" y="0" x="0" id="text-entity-SUBMISSIONS-dfc51483-dd3e-572b-8e3b-983526051a16-attr-5-comment" class="er entityLabel"></text></g><rect height="14" width="39.7578125" y="164.33201599121094" x="225.72665405273438" class="er relationshipLabelBox"></rect><text style="text-anchor: middle; dominant-baseline: middle; font-size: 12px;" y="171.33201599121094" x="245.60556030273438" id="rel85" class="er relationshipLabel">creates</text><rect height="14" width="44.24609375" y="431" x="136.9029541015625" class="er relationshipLabelBox"></rect><text style="text-anchor: middle; dominant-baseline: middle; font-size: 12px;" y="438" x="159.0260009765625" id="rel86" class="er relationshipLabel">includes</text><rect height="14" width="17.861328125" y="689.9330444335938" x="220.1647186279297" class="er relationshipLabelBox"></rect><text style="text-anchor: middle; dominant-baseline: middle; font-size: 12px;" y="696.9330444335938" x="229.0953826904297" id="rel87" class="er relationshipLabel">has</text><rect height="14" width="41.240234375" y="404.68487548828125" x="746.0598754882812" class="er relationshipLabelBox"></rect><text style="text-anchor: middle; dominant-baseline: middle; font-size: 12px;" y="411.68487548828125" x="766.6799926757812" id="rel88" class="er relationshipLabel">submits</text><rect height="14" width="33.86328125" y="317.58758544921875" x="435.6340637207031" class="er relationshipLabelBox"></rect><text style="text-anchor: middle; dominant-baseline: middle; font-size: 12px;" y="324.58758544921875" x="452.5657043457031" id="rel89" class="er relationshipLabel">makes</text><rect height="14" width="44.978515625" y="391.5401306152344" x="422.76361083984375" class="er relationshipLabelBox"></rect><text style="text-anchor: middle; dominant-baseline: middle; font-size: 12px;" y="398.5401306152344" x="445.25286865234375" id="rel90" class="er relationshipLabel">contains</text></svg>